<mxfile host="app.diagrams.net" modified="2024-05-22T01:46:08.747Z" agent="Mozilla/5.0 (Windows NT 10.0; Win64; x64) AppleWebKit/537.36 (KHTML, like Gecko) Chrome/124.0.0.0 Safari/537.36 Edg/124.0.0.0" version="24.4.4" etag="izhf5e_wrxGNcD8bSex3" type="github">
  <diagram name="Page-1" id="tAoZRrrz1jYeecWXqSwE">
    <mxGraphModel>
      <root>
        <mxCell id="0" />
        <mxCell id="1" parent="0" />
      </root>
    </mxGraphModel>
  </diagram>
</mxfile>
